<mxfile host="65bd71144e" modified="2021-01-04T12:05:31.202Z" agent="5.0 (Macintosh; Intel Mac OS X 10_15_7) AppleWebKit/537.36 (KHTML, like Gecko) Code/1.52.1 Chrome/83.0.4103.122 Electron/9.3.5 Safari/537.36" etag="E5OJwIknPocqlhocZCtV" version="13.10.0" type="embed">
    <diagram id="W2TeH-pYm_ro6ky3-ROw" name="Page-1">
        <mxGraphModel dx="567" dy="680" grid="1" gridSize="10" guides="1" tooltips="1" connect="1" arrows="1" fold="1" page="1" pageScale="1" pageWidth="827" pageHeight="1169" math="0" shadow="0">
            <root>
                <mxCell id="0"/>
                <mxCell id="1" parent="0"/>
                <mxCell id="39" value="" style="group" parent="1" vertex="1" connectable="0">
                    <mxGeometry x="140" y="60" width="530" height="370" as="geometry"/>
                </mxCell>
                <mxCell id="36" value="" style="rounded=1;whiteSpace=wrap;html=1;sketch=0;" parent="39" vertex="1">
                    <mxGeometry x="20" y="20" width="490" height="330" as="geometry"/>
                </mxCell>
                <mxCell id="41" value="&lt;ul&gt;&lt;li&gt;任务1&lt;/li&gt;&lt;li&gt;任务2&lt;/li&gt;&lt;li&gt;任务3&lt;/li&gt;&lt;/ul&gt;" style="text;strokeColor=#d6b656;fillColor=#fff2cc;html=1;whiteSpace=wrap;verticalAlign=middle;overflow=hidden;rounded=0;sketch=0;" parent="39" vertex="1">
                    <mxGeometry x="130" y="70" width="260" height="260" as="geometry"/>
                </mxCell>
                <mxCell id="42" value="工作节点名" style="text;strokeColor=none;fillColor=none;html=1;fontSize=24;fontStyle=1;verticalAlign=middle;align=center;rounded=0;sketch=0;" parent="39" vertex="1">
                    <mxGeometry x="196" y="30" width="100" height="40" as="geometry"/>
                </mxCell>
                <mxCell id="44" value="&lt;ul&gt;&lt;li&gt;输入数据1&lt;/li&gt;&lt;li&gt;输入数据2&lt;/li&gt;&lt;li&gt;。。。&lt;/li&gt;&lt;/ul&gt;" style="text;strokeColor=#82b366;fillColor=#d5e8d4;html=1;whiteSpace=wrap;verticalAlign=middle;overflow=hidden;rounded=0;sketch=0;" parent="39" vertex="1">
                    <mxGeometry x="30" y="70" width="100" height="90" as="geometry"/>
                </mxCell>
                <mxCell id="45" value="&lt;ul&gt;&lt;li&gt;工作数据1&lt;/li&gt;&lt;li&gt;工作数据2&lt;/li&gt;&lt;li&gt;。。。&lt;/li&gt;&lt;/ul&gt;" style="text;strokeColor=#b85450;fillColor=#f8cecc;html=1;whiteSpace=wrap;verticalAlign=middle;overflow=hidden;rounded=0;sketch=0;" parent="39" vertex="1">
                    <mxGeometry x="390" y="70" width="100" height="80" as="geometry"/>
                </mxCell>
                <mxCell id="46" value="&lt;ul&gt;&lt;li&gt;输出数据1&lt;/li&gt;&lt;li&gt;输出数据2&lt;/li&gt;&lt;li&gt;。。。&lt;/li&gt;&lt;/ul&gt;" style="text;strokeColor=#82b366;fillColor=#d5e8d4;html=1;whiteSpace=wrap;verticalAlign=middle;overflow=hidden;rounded=0;sketch=0;" parent="39" vertex="1">
                    <mxGeometry x="390" y="200" width="100" height="80" as="geometry"/>
                </mxCell>
                <mxCell id="48" value="" style="endArrow=none;html=1;entryX=0.224;entryY=0.061;entryDx=0;entryDy=0;entryPerimeter=0;exitX=0.224;exitY=0.97;exitDx=0;exitDy=0;exitPerimeter=0;" parent="39" source="36" target="36" edge="1">
                    <mxGeometry width="50" height="50" relative="1" as="geometry">
                        <mxPoint x="240" y="350" as="sourcePoint"/>
                        <mxPoint x="290" y="300" as="targetPoint"/>
                    </mxGeometry>
                </mxCell>
                <mxCell id="49" value="" style="endArrow=none;html=1;entryX=0.224;entryY=0.061;entryDx=0;entryDy=0;entryPerimeter=0;exitX=0.224;exitY=0.97;exitDx=0;exitDy=0;exitPerimeter=0;" parent="39" edge="1">
                    <mxGeometry width="50" height="50" relative="1" as="geometry">
                        <mxPoint x="390" y="334.9799999999999" as="sourcePoint"/>
                        <mxPoint x="390" y="35.00999999999999" as="targetPoint"/>
                    </mxGeometry>
                </mxCell>
                <mxCell id="51" value="&lt;ul&gt;&lt;li&gt;参考数据1&lt;/li&gt;&lt;li&gt;参考数据2&lt;/li&gt;&lt;li&gt;。。。&lt;/li&gt;&lt;/ul&gt;" style="text;strokeColor=#82b366;fillColor=#d5e8d4;html=1;whiteSpace=wrap;verticalAlign=middle;overflow=hidden;rounded=0;sketch=0;" parent="39" vertex="1">
                    <mxGeometry x="30" y="199" width="100" height="80" as="geometry"/>
                </mxCell>
                <mxCell id="52" value="" style="html=1;verticalLabelPosition=bottom;labelBackgroundColor=#ffffff;verticalAlign=top;shadow=0;dashed=0;strokeWidth=2;shape=mxgraph.ios7.misc.flagged;strokeColor=#0080f0;" vertex="1" parent="39">
                    <mxGeometry x="254" y="310" width="12" height="12" as="geometry"/>
                </mxCell>
                <mxCell id="53" value="" style="html=1;verticalLabelPosition=bottom;labelBackgroundColor=#ffffff;verticalAlign=top;shadow=0;dashed=0;strokeWidth=2;shape=mxgraph.ios7.misc.flagged;strokeColor=#0080f0;" vertex="1" parent="39">
                    <mxGeometry x="74" y="267" width="12" height="12" as="geometry"/>
                </mxCell>
                <mxCell id="54" value="" style="html=1;verticalLabelPosition=bottom;labelBackgroundColor=#ffffff;verticalAlign=top;shadow=0;dashed=0;strokeWidth=2;shape=mxgraph.ios7.misc.flagged;strokeColor=#0080f0;" vertex="1" parent="39">
                    <mxGeometry x="74" y="148" width="12" height="12" as="geometry"/>
                </mxCell>
                <mxCell id="56" value="" style="html=1;verticalLabelPosition=bottom;labelBackgroundColor=#ffffff;verticalAlign=top;shadow=0;dashed=0;strokeWidth=2;shape=mxgraph.ios7.misc.flagged;strokeColor=#0080f0;" vertex="1" parent="39">
                    <mxGeometry x="434" y="268" width="12" height="12" as="geometry"/>
                </mxCell>
                <mxCell id="57" value="" style="html=1;verticalLabelPosition=bottom;labelBackgroundColor=#ffffff;verticalAlign=top;shadow=0;dashed=0;strokeWidth=2;shape=mxgraph.ios7.misc.flagged;strokeColor=#0080f0;" vertex="1" parent="39">
                    <mxGeometry x="434" y="138" width="12" height="12" as="geometry"/>
                </mxCell>
                <mxCell id="50" value="&lt;ul style=&quot;font-size: 18px&quot;&gt;&lt;li style=&quot;font-size: 18px&quot;&gt;工作节点可以有多个任务&lt;/li&gt;&lt;li style=&quot;font-size: 18px&quot;&gt;工作节点可有多个数据输入&lt;/li&gt;&lt;li style=&quot;font-size: 18px&quot;&gt;有多个数据输出&lt;/li&gt;&lt;li style=&quot;font-size: 18px&quot;&gt;有多个工作数据&lt;/li&gt;&lt;/ul&gt;" style="text;strokeColor=none;fillColor=none;html=1;whiteSpace=wrap;verticalAlign=middle;overflow=hidden;rounded=0;sketch=0;fontSize=18;" parent="1" vertex="1">
                    <mxGeometry x="200" y="430" width="370" height="150" as="geometry"/>
                </mxCell>
            </root>
        </mxGraphModel>
    </diagram>
</mxfile>